<svg xmlns="http://www.w3.org/2000/svg" width="2000" height="3000" viewBox="0 0 2000 3000"><rect width="1000" height="1000" rx="20" ry="20" fill="#fff"/><rect x="1000" width="1000" height="1000" rx="20" ry="20" fill="#fff"/><rect y="1000" width="1000" height="1000" rx="20" ry="20" fill="#fff"/><rect x="1000" y="1000" width="1000" height="1000" rx="20" ry="20" fill="#fff"/><rect y="2000" width="1000" height="1000" rx="20" ry="20" fill="#fff"/><path fill="#b22222" d="M20 20h960v960H20zm1000 0h960v960h-960zM20 1020h960v960H20zm1000 0h960v960h-960zM20 2020h960v960H20z"/><path d="M20 20l960 960H20zm1000 0h960l-960 960zm-40 1000v960H20zm40 0l960 960v-960zM20 2020l960 960H20z"/></svg>